<?xml version="1.0" encoding="utf-8"?>
<!-- Generator: Adobe Illustrator 16.0.1, SVG Export Plug-In . SVG Version: 6.00 Build 0)  -->
<!DOCTYPE svg PUBLIC "-//W3C//DTD SVG 1.1//EN" "http://www.w3.org/Graphics/SVG/1.1/DTD/svg11.dtd">
<svg version="1.1" id="Layer_1" xmlns="http://www.w3.org/2000/svg" xmlns:xlink="http://www.w3.org/1999/xlink" x="0px" y="0px"
	 width="120px" height="30px" viewBox="0 0 120 30" enable-background="new 0 0 120 30" xml:space="preserve">
<g>
	<g>
		<path fill="#231F20" d="M38.947,17.943c-0.978,0-1.773-0.797-1.773-1.775v-3.332h0.433v3.332c0,0.74,0.602,1.342,1.341,1.342
			c0.74,0,1.342-0.602,1.342-1.342v-3.332h0.433v3.332C40.722,17.146,39.926,17.943,38.947,17.943L38.947,17.943z"/>
		<path fill="#231F20" d="M38.947,18.722c-1.407,0-2.553-1.146-2.553-2.554v-3.332h0.433v3.332c0,1.17,0.951,2.121,2.12,2.121
			c1.17,0,2.121-0.951,2.121-2.121v-3.332h0.433v3.332C41.501,17.576,40.355,18.722,38.947,18.722L38.947,18.722z"/>
		<path fill="#231F20" d="M38.947,17.164c-0.548,0-0.995-0.447-0.995-0.996v-3.332h0.433v3.332c0,0.311,0.252,0.562,0.562,0.562
			c0.311,0,0.563-0.252,0.563-0.562v-3.332h0.433v3.332C39.943,16.717,39.497,17.164,38.947,17.164L38.947,17.164z"/>
	</g>
	<g>
		<polygon fill="#231F20" points="35.659,15.216 33.279,15.216 33.279,14.784 35.659,14.784 35.659,15.216 		"/>
		<polygon fill="#231F20" points="34.491,18.722 34.058,18.722 34.058,15.562 35.659,15.562 35.659,15.995 34.491,15.995 
			34.491,18.722 		"/>
		<path fill="#231F20" d="M32.933,18.722H32.5v-5.669c0-1.408,1.146-2.553,2.553-2.553h0.606v0.433h-0.606
			c-1.169,0-2.121,0.952-2.121,2.121V18.722L32.933,18.722z"/>
		<path fill="#231F20" d="M33.711,18.722h-0.433v-5.669c0-0.978,0.796-1.774,1.774-1.774h0.606v0.433h-0.606
			c-0.74,0-1.342,0.602-1.342,1.341V18.722L33.711,18.722z"/>
		<path fill="#231F20" d="M35.659,14.438h-1.602v-1.385c0-0.549,0.447-0.995,0.996-0.995h0.606v0.433h-0.606
			c-0.31,0-0.562,0.252-0.562,0.562v0.952h1.168V14.438L35.659,14.438z"/>
	</g>
	<g>
		<path fill="#231F20" d="M59.459,18.722h-0.433v-2.943c0-0.954-0.776-1.731-1.731-1.731s-1.731,0.777-1.731,1.731
			c0,0.955,0.776,1.731,1.731,1.731h0.606v0.434h-0.606c-0.578,0-1.121-0.227-1.53-0.635c-0.409-0.408-0.634-0.951-0.634-1.53
			c0-1.193,0.971-2.164,2.164-2.164s2.164,0.97,2.164,2.164V18.722L59.459,18.722z"/>
		<path fill="#231F20" d="M58.681,18.722h-0.434v-2.943c0-0.525-0.427-0.952-0.952-0.952s-0.952,0.427-0.952,0.952
			s0.427,0.952,0.952,0.952h0.606v0.434h-0.606c-0.763,0-1.384-0.621-1.384-1.385c0-0.763,0.621-1.385,1.384-1.385
			s1.385,0.622,1.385,1.385V18.722L58.681,18.722z"/>
		<path fill="#231F20" d="M60.238,18.722h-0.433v-2.943c0-1.384-1.126-2.51-2.51-2.51c-1.384,0-2.51,1.126-2.51,2.51
			c0,1.383,1.126,2.51,2.51,2.51h0.606v0.433h-0.606c-1.623,0-2.942-1.319-2.942-2.943c0-1.623,1.32-2.942,2.942-2.942
			s2.943,1.32,2.943,2.942V18.722L60.238,18.722z"/>
	</g>
	<g>
		<polygon fill="#231F20" points="62.186,18.722 61.752,18.722 61.752,10.889 62.186,10.889 62.186,18.722 		"/>
		<polygon fill="#231F20" points="62.965,18.722 62.531,18.722 62.531,10.889 62.965,10.889 62.965,18.722 		"/>
		<polygon fill="#231F20" points="61.406,18.722 60.974,18.722 60.974,10.889 61.406,10.889 61.406,18.722 		"/>
	</g>
	<g>
		<polygon fill="#231F20" points="64.912,18.722 64.479,18.722 64.479,10.889 64.912,10.889 64.912,18.722 		"/>
		<polygon fill="#231F20" points="65.69,18.722 65.258,18.722 65.258,10.889 65.69,10.889 65.69,18.722 		"/>
		<polygon fill="#231F20" points="64.133,18.722 63.699,18.722 63.699,10.889 64.133,10.889 64.133,18.722 		"/>
	</g>
	<g>
		<path fill="#231F20" d="M69.369,17.943c-1.193,0-2.164-0.972-2.164-2.165v-4.89h0.432v4.89c0,0.955,0.777,1.731,1.732,1.731
			c0.954,0,1.73-0.776,1.73-1.731c0-0.954-0.776-1.731-1.73-1.731h-0.606v-0.433h0.606c0.577,0,1.121,0.225,1.529,0.634
			c0.409,0.409,0.634,0.952,0.634,1.53C71.532,16.972,70.562,17.943,69.369,17.943L69.369,17.943z"/>
		<path fill="#231F20" d="M69.369,17.164c-0.764,0-1.386-0.621-1.386-1.385v-4.89h0.434v4.89c0,0.525,0.427,0.952,0.952,0.952
			c0.524,0,0.951-0.427,0.951-0.952s-0.427-0.952-0.951-0.952h-0.606v-0.433h0.606c0.764,0,1.385,0.622,1.385,1.385
			C70.754,16.543,70.133,17.164,69.369,17.164L69.369,17.164z"/>
		<path fill="#231F20" d="M69.369,18.722c-1.623,0-2.943-1.319-2.943-2.943v-4.89h0.433v4.89c0,1.383,1.126,2.51,2.511,2.51
			c1.383,0,2.51-1.127,2.51-2.51c0-1.384-1.127-2.51-2.51-2.51h-0.606v-0.433h0.606c1.622,0,2.941,1.32,2.941,2.942
			C72.311,17.402,70.991,18.722,69.369,18.722L69.369,18.722z"/>
	</g>
	<g>
		<path fill="#231F20" d="M78.932,18.722h-0.433V15.39c0-1.408,1.146-2.553,2.554-2.553h0.217v0.433h-0.217
			c-1.17,0-2.121,0.951-2.121,2.121V18.722L78.932,18.722z"/>
		<path fill="#231F20" d="M79.711,18.722h-0.433V15.39c0-0.979,0.796-1.774,1.774-1.774h0.217v0.433h-0.217
			c-0.74,0-1.342,0.602-1.342,1.342V18.722L79.711,18.722z"/>
		<path fill="#231F20" d="M80.49,18.722h-0.434V15.39c0-0.549,0.447-0.996,0.996-0.996h0.217v0.433h-0.217
			c-0.311,0-0.562,0.252-0.562,0.562V18.722L80.49,18.722z"/>
	</g>
	<g>
		<path fill="#231F20" d="M84.557,18.722c-1.622,0-2.941-1.319-2.941-2.943c0-1.623,1.319-2.942,2.941-2.942
			c1.623,0,2.943,1.32,2.943,2.942C87.5,17.402,86.18,18.722,84.557,18.722L84.557,18.722z M84.557,13.269
			c-1.383,0-2.51,1.126-2.51,2.51c0,1.383,1.127,2.51,2.51,2.51c1.385,0,2.511-1.127,2.511-2.51
			C87.067,14.395,85.941,13.269,84.557,13.269L84.557,13.269z"/>
		<path fill="#231F20" d="M84.557,17.164c-0.763,0-1.385-0.621-1.385-1.385c0-0.763,0.622-1.385,1.385-1.385
			c0.765,0,1.386,0.622,1.386,1.385C85.942,16.543,85.321,17.164,84.557,17.164L84.557,17.164z M84.557,14.827
			c-0.524,0-0.951,0.427-0.951,0.952s0.427,0.952,0.951,0.952c0.525,0,0.953-0.427,0.953-0.952S85.082,14.827,84.557,14.827
			L84.557,14.827z"/>
		<path fill="#231F20" d="M84.557,17.943c-1.192,0-2.162-0.972-2.162-2.165c0-1.193,0.97-2.164,2.162-2.164
			c1.193,0,2.164,0.97,2.164,2.164C86.721,16.972,85.75,17.943,84.557,17.943L84.557,17.943z M84.557,14.048
			c-0.954,0-1.73,0.777-1.73,1.731c0,0.955,0.776,1.731,1.73,1.731c0.955,0,1.732-0.776,1.732-1.731
			C86.289,14.825,85.512,14.048,84.557,14.048L84.557,14.048z"/>
	</g>
	<g>
		<path fill="#231F20" d="M75.211,17.943c-0.979,0-1.775-0.797-1.775-1.775v-3.332h0.434v3.332c0,0.74,0.602,1.342,1.342,1.342
			c0.739,0,1.342-0.602,1.342-1.342v-3.332h0.432v3.332C76.984,17.146,76.189,17.943,75.211,17.943L75.211,17.943z"/>
		<path fill="#231F20" d="M75.211,18.722c-1.408,0-2.554-1.146-2.554-2.554v-3.332h0.433v3.332c0,1.17,0.951,2.121,2.121,2.121
			c1.169,0,2.12-0.951,2.12-2.121v-3.332h0.433v3.332C77.764,17.576,76.618,18.722,75.211,18.722L75.211,18.722z"/>
		<path fill="#231F20" d="M75.211,17.164c-0.549,0-0.996-0.447-0.996-0.996v-3.332h0.434v3.332c0,0.311,0.252,0.562,0.562,0.562
			s0.562-0.252,0.562-0.562v-3.332h0.433v3.332C76.206,16.717,75.76,17.164,75.211,17.164L75.211,17.164z"/>
		<path fill="#231F20" d="M73.861,12.274c-0.434,0-0.787-0.353-0.787-0.787s0.354-0.786,0.787-0.786s0.787,0.353,0.787,0.786
			S74.295,12.274,73.861,12.274L73.861,12.274z M73.861,11.047c-0.242,0-0.44,0.197-0.44,0.44s0.198,0.44,0.44,0.44
			c0.243,0,0.441-0.198,0.441-0.44S74.104,11.047,73.861,11.047L73.861,11.047z"/>
		<path fill="#231F20" d="M73.861,11.292c-0.107,0-0.195,0.087-0.195,0.195c0,0.108,0.088,0.195,0.195,0.195
			s0.195-0.087,0.195-0.195C74.057,11.38,73.969,11.292,73.861,11.292L73.861,11.292z"/>
		<path fill="#231F20" d="M76.588,12.274c-0.434,0-0.787-0.353-0.787-0.787s0.354-0.786,0.787-0.786s0.786,0.353,0.786,0.786
			S77.021,12.274,76.588,12.274L76.588,12.274z M76.588,11.047c-0.242,0-0.44,0.197-0.44,0.44s0.198,0.44,0.44,0.44
			s0.439-0.198,0.439-0.44S76.83,11.047,76.588,11.047L76.588,11.047z"/>
		<path fill="#231F20" d="M76.588,11.292c-0.107,0-0.195,0.087-0.195,0.195c0,0.108,0.088,0.195,0.195,0.195
			s0.194-0.087,0.194-0.195C76.782,11.38,76.695,11.292,76.588,11.292L76.588,11.292z"/>
	</g>
	<g>
		<path fill="#231F20" d="M44.79,18.722h-0.216v-0.433h0.216c0.955,0,1.731-0.777,1.731-1.731s-0.776-1.73-1.731-1.73h-0.216v-0.433
			h0.216c1.193,0,2.164,0.971,2.164,2.164C46.953,17.751,45.982,18.722,44.79,18.722L44.79,18.722z"/>
		<path fill="#231F20" d="M44.79,17.943h-0.216V17.51h0.216c0.123,0,0.247-0.023,0.358-0.069c0.412-0.168,0.66-0.624,0.577-1.062
			c-0.083-0.44-0.485-0.773-0.935-0.773h-0.216v-0.433h0.216c0.654,0,1.239,0.483,1.36,1.125c0.123,0.646-0.23,1.295-0.839,1.543
			C45.146,17.908,44.97,17.943,44.79,17.943L44.79,17.943z"/>
		<path fill="#231F20" d="M43.448,18.722h-0.433v-5.669c0-0.978,0.796-1.774,1.774-1.774s1.774,0.796,1.774,1.774
			s-0.796,1.774-1.774,1.774h-0.216v-0.433h0.216c0.74,0,1.341-0.602,1.341-1.341s-0.602-1.341-1.341-1.341
			s-1.341,0.602-1.341,1.341V18.722L43.448,18.722z"/>
		<path fill="#231F20" d="M44.227,18.722h-0.433v-5.669c0-0.549,0.447-0.995,0.996-0.995s0.996,0.446,0.996,0.995
			c0,0.134-0.026,0.265-0.078,0.387c-0.051,0.119-0.122,0.225-0.214,0.316c-0.091,0.091-0.197,0.163-0.316,0.213
			c-0.123,0.052-0.253,0.078-0.387,0.078h-0.216v-0.433h0.216c0.076,0,0.15-0.015,0.219-0.044c0.066-0.028,0.127-0.069,0.179-0.121
			s0.092-0.112,0.121-0.179c0.029-0.069,0.044-0.143,0.044-0.219c0-0.31-0.253-0.562-0.563-0.562s-0.562,0.252-0.562,0.562V18.722
			L44.227,18.722z"/>
		<path fill="#231F20" d="M44.79,19.5h-0.216v-0.432h0.216c1.384,0,2.51-1.127,2.51-2.511c0-0.713-0.306-1.396-0.839-1.872
			l-0.153-0.138l0.13-0.16c0.31-0.381,0.474-0.843,0.474-1.335c0-1.169-0.951-2.12-2.121-2.12s-2.121,0.951-2.121,2.12v5.669h-0.433
			v-5.669c0-1.408,1.146-2.553,2.553-2.553s2.553,1.146,2.553,2.553c0,0.517-0.159,1.024-0.45,1.447
			c0.536,0.548,0.84,1.288,0.84,2.058C47.732,18.18,46.412,19.5,44.79,19.5L44.79,19.5z"/>
	</g>
	<g>
		<path fill="#231F20" d="M51.064,17.943c-1.193,0-2.164-0.972-2.164-2.165v-4.89h0.433v4.89c0,0.955,0.776,1.731,1.731,1.731
			c0.954,0,1.73-0.776,1.73-1.731c0-0.954-0.776-1.731-1.73-1.731h-0.606l0-0.433h0.606c0.577,0,1.121,0.225,1.529,0.634
			c0.409,0.409,0.634,0.952,0.634,1.53C53.228,16.972,52.257,17.943,51.064,17.943L51.064,17.943z"/>
		<path fill="#231F20" d="M51.064,17.164c-0.764,0-1.385-0.621-1.385-1.385v-4.89h0.433v4.89c0,0.525,0.427,0.952,0.952,0.952
			c0.524,0,0.952-0.427,0.952-0.952s-0.427-0.952-0.952-0.952h-0.606v-0.433h0.606c0.763,0,1.384,0.622,1.384,1.385
			C52.449,16.543,51.828,17.164,51.064,17.164L51.064,17.164z"/>
		<path fill="#231F20" d="M51.064,18.722c-1.623,0-2.943-1.319-2.943-2.943v-4.89h0.433v4.89c0,1.383,1.125,2.51,2.51,2.51
			c1.384,0,2.51-1.127,2.51-2.51c0-1.384-1.126-2.51-2.51-2.51h-0.606v-0.433h0.606c1.622,0,2.942,1.32,2.942,2.942
			C54.007,17.402,52.687,18.722,51.064,18.722L51.064,18.722z"/>
	</g>
</g>
</svg>
