<?xml version="1.0" encoding="utf-8"?>
<!-- Generator: Adobe Illustrator 16.0.1, SVG Export Plug-In . SVG Version: 6.00 Build 0)  -->
<!DOCTYPE svg PUBLIC "-//W3C//DTD SVG 1.1//EN" "http://www.w3.org/Graphics/SVG/1.1/DTD/svg11.dtd">
<svg version="1.1" id="Layer_1" xmlns="http://www.w3.org/2000/svg" xmlns:xlink="http://www.w3.org/1999/xlink" x="0px" y="0px"
	 width="50px" height="50px" viewBox="0 0 50 50" enable-background="new 0 0 50 50" xml:space="preserve">
<path fill="#DA0812" d="M38,26.418v-2.959l-0.418-0.136l-3.167-1.034l-0.845-2.041l1.624-3.437l-2.092-2.093l-0.393,0.199
	l-2.971,1.509l-2.04-0.845L26.417,12h-2.959l-0.136,0.419l-1.034,3.167l-2.04,0.844l-3.438-1.624l-2.092,2.092l0.199,0.392
	l1.508,2.972l-0.845,2.039L12,23.583v2.959l0.418,0.136l3.167,1.035l0.845,2.039l-1.624,3.438l2.091,2.093l0.392-0.199l2.971-1.508
	l2.041,0.845L23.583,38h2.959l0.136-0.418l1.035-3.166l2.04-0.846l3.437,1.625l2.093-2.093l-0.199-0.393l-1.508-2.971l0.845-2.04
	L38,26.418z M25,29.145c-2.288,0-4.143-1.856-4.143-4.145c0-2.287,1.855-4.143,4.143-4.143c2.287,0,4.143,1.856,4.143,4.143
	C29.143,27.288,27.287,29.145,25,29.145z"/>
</svg>
