<?xml version="1.0" encoding="utf-8"?>
<!-- Generator: Adobe Illustrator 16.0.1, SVG Export Plug-In . SVG Version: 6.00 Build 0)  -->
<!DOCTYPE svg PUBLIC "-//W3C//DTD SVG 1.1//EN" "http://www.w3.org/Graphics/SVG/1.1/DTD/svg11.dtd">
<svg version="1.1" id="Layer_1" xmlns="http://www.w3.org/2000/svg" xmlns:xlink="http://www.w3.org/1999/xlink" x="0px" y="0px"
	 width="50px" height="50px" viewBox="0 0 50 50" enable-background="new 0 0 50 50" xml:space="preserve">
<path fill="#DA0812" d="M34.908,29.103c3.898-3.899,3.817-10.324-0.081-14.223c-3.899-3.899-10.122-3.777-14.021,0.122
	c-3.415,3.415-4.029,8.514-1.15,12.708l-7.448,7.447l2.829,2.828l7.447-7.447C25.971,32.708,31.493,32.518,34.908,29.103z
	 M23.432,26.112c-2.339-2.34-2.339-6.146,0-8.485c2.34-2.34,6.146-2.34,8.485,0c2.34,2.339,2.34,6.146,0,8.485
	C29.577,28.451,25.771,28.451,23.432,26.112z"/>
</svg>
